# Blender v2.83.3 OBJ File: ''
# www.blender.org
mtllib RangerBadge.mtl
o ForestBadge
v -0.097949 0.114507 0.024090
v -0.024273 0.148863 0.024090
v -0.023396 0.143888 0.006243
v -0.089863 0.104871 0.006243
v -0.145628 0.053880 0.024090
v -0.135114 0.056991 0.006243
v -0.156904 -0.029060 0.024090
v -0.145823 -0.019462 0.006243
v -0.118357 -0.100779 0.024090
v -0.156904 -0.029060 0.024090
v -0.145823 -0.019462 0.006243
v -0.108721 -0.092693 0.006243
v -0.055958 -0.149362 0.024090
v -0.051656 -0.137542 0.006243
v 0.029216 -0.154491 0.024090
v 0.028592 -0.150952 0.006243
v 0.102892 -0.120135 0.024090
v 0.029216 -0.154491 0.024090
v 0.028592 -0.150952 0.006243
v 0.096366 -0.119348 0.006243
v 0.151163 -0.055503 0.024090
v 0.140903 -0.060050 0.006243
v 0.158248 0.025480 0.024090
v 0.145860 0.023295 0.006243
v 0.122249 0.101114 0.024090
v 0.158248 0.025480 0.024090
v 0.145860 0.023295 0.006243
v 0.112612 0.093028 0.006243
v 0.055658 0.147741 0.024090
v 0.051356 0.135920 0.006243
v -0.024273 0.148863 0.024090
v -0.023396 0.143888 0.006243
v -0.072848 0.090877 0.015566
v 0.002085 0.001869 0.015566
v -0.018516 0.116212 0.015566
v 0.040153 0.116950 0.015566
v -0.108284 0.047733 0.015566
v 0.090662 0.074610 0.015566
v -0.116298 -0.021899 0.015566
v 0.125220 0.017145 0.015566
v -0.090634 -0.078853 0.015566
v 0.119996 -0.042575 0.015566
v -0.045719 -0.115194 0.015566
v 0.076388 -0.088549 0.015566
v 0.022056 -0.113884 0.015566
v -0.023396 0.143888 0.006243
v 0.001782 -0.001570 0.006243
v -0.089863 0.104871 0.006243
v -0.135114 0.056991 0.006243
v 0.051356 0.135920 0.006243
v -0.145823 -0.019462 0.006243
v 0.112612 0.093028 0.006243
v -0.108721 -0.092693 0.006243
v 0.145860 0.023295 0.006243
v -0.051656 -0.137542 0.006243
v 0.140903 -0.060050 0.006243
v 0.028592 -0.150952 0.006243
v 0.096366 -0.119348 0.006243
v -0.072848 0.090877 0.015566
v -0.018516 0.116212 0.015566
v -0.020226 0.125911 0.024252
v -0.082969 0.096654 0.024252
v 0.047687 0.125841 0.024252
v -0.108284 0.047733 0.015566
v 0.040153 0.116950 0.015566
v -0.123728 0.045909 0.024252
v 0.104396 0.086133 0.024252
v -0.116298 -0.021899 0.015566
v 0.090662 0.074610 0.015566
v -0.133953 -0.025013 0.024252
v 0.135297 0.021433 0.024252
v -0.090634 -0.078853 0.015566
v 0.125220 0.017145 0.015566
v -0.100504 -0.085798 0.024252
v 0.129263 -0.047532 0.024252
v -0.045719 -0.115194 0.015566
v 0.119996 -0.042575 0.015566
v -0.047987 -0.127463 0.024252
v 0.087911 -0.102282 0.024252
v 0.022056 -0.113884 0.015566
v 0.076388 -0.088549 0.015566
v 0.025169 -0.131539 0.024252
v -0.022538 0.139019 0.027383
v -0.024273 0.148863 0.024090
v -0.097949 0.114507 0.024090
v -0.091524 0.106850 0.027383
v -0.145628 0.053880 0.024090
v 0.052239 0.138348 0.027383
v 0.055658 0.147741 0.024090
v -0.136235 0.050461 0.027383
v -0.156904 -0.029060 0.024090
v 0.114592 0.094689 0.027383
v 0.122249 0.101114 0.024090
v -0.147061 -0.027324 0.027383
v -0.118357 -0.100779 0.024090
v 0.148404 0.023744 0.027383
v 0.158248 0.025480 0.024090
v -0.110700 -0.094353 0.027383
v -0.055958 -0.149362 0.024090
v 0.141770 -0.052085 0.027383
v 0.151163 -0.055503 0.024090
v -0.052540 -0.139970 0.027383
v 0.029216 -0.154491 0.024090
v 0.096467 -0.112478 0.027383
v 0.102892 -0.120135 0.024090
v 0.027480 -0.144647 0.027383
v 0.104396 0.086133 0.024252
v 0.135297 0.021433 0.024252
v 0.047687 0.125841 0.024252
v 0.129263 -0.047532 0.024252
v 0.087911 -0.102282 0.024252
v -0.020226 0.125911 0.024252
v 0.025169 -0.131539 0.024252
v -0.047987 -0.127463 0.024252
v -0.082969 0.096654 0.024252
v -0.100504 -0.085798 0.024252
v -0.123728 0.045909 0.024252
v -0.133953 -0.025013 0.024252
vt 0.308594 0.038116
vt 0.454590 0.038116
vt 0.454590 0.093140
vt 0.308594 0.093140
vt 0.167725 0.038116
vt 0.167725 0.093140
vt 0.028290 0.038116
vt 0.028290 0.093140
vt 0.310303 0.037598
vt 0.460693 0.037598
vt 0.460693 0.092590
vt 0.310303 0.092590
vt 0.164673 0.037598
vt 0.164673 0.092590
vt 0.022369 0.037598
vt 0.022369 0.092590
vt 0.308594 0.037598
vt 0.454590 0.037598
vt 0.454590 0.092590
vt 0.308594 0.092590
vt 0.167725 0.037598
vt 0.167725 0.092590
vt 0.028290 0.037598
vt 0.028290 0.092590
vt 0.310303 0.038116
vt 0.460693 0.038116
vt 0.460693 0.093140
vt 0.310303 0.093140
vt 0.164673 0.038116
vt 0.164673 0.093140
vt 0.022369 0.038116
vt 0.022369 0.093140
vt 0.169434 0.871094
vt 0.310547 0.710938
vt 0.268066 0.919922
vt 0.375244 0.923828
vt 0.105957 0.791016
vt 0.469971 0.848633
vt 0.093811 0.662598
vt 0.535644 0.744141
vt 0.143555 0.559082
vt 0.528809 0.634766
vt 0.227295 0.494141
vt 0.451172 0.548340
vt 0.352051 0.499023
vt 0.995117 0.282227
vt 0.721680 0.281494
vt 0.945312 0.148560
vt 0.872559 0.050598
vt 0.956543 0.416260
vt 0.736328 0.006462
vt 0.858398 0.514160
vt 0.590820 0.050598
vt 0.720703 0.552246
vt 0.490723 0.140259
vt 0.570312 0.516602
vt 0.440430 0.282227
vt 0.476318 0.416260
vt 0.169434 0.871094
vt 0.268066 0.919922
vt 0.262207 0.946777
vt 0.144898 0.888672
vt 0.390869 0.948731
vt 0.105957 0.791016
vt 0.375244 0.923828
vt 0.070679 0.790039
vt 0.499268 0.874512
vt 0.093811 0.662598
vt 0.469971 0.848633
vt 0.055817 0.655273
vt 0.562500 0.754394
vt 0.143555 0.559082
vt 0.535644 0.744141
vt 0.119385 0.540527
vt 0.554199 0.623535
vt 0.227295 0.494141
vt 0.528809 0.634766
vt 0.221191 0.464355
vt 0.476807 0.519043
vt 0.352051 0.499023
vt 0.451172 0.548340
vt 0.359619 0.460938
vt 0.257324 0.971191
vt 0.253418 0.990723
vt 0.115295 0.921875
vt 0.128662 0.906738
vt 0.028427 0.804199
vt 0.398682 0.971680
vt 0.405273 0.990234
vt 0.047485 0.797852
vt 0.012161 0.646484
vt 0.517578 0.890625
vt 0.532715 0.904297
vt 0.031860 0.650391
vt 0.085693 0.510742
vt 0.586426 0.759277
vt 0.605957 0.763184
vt 0.100891 0.523926
vt 0.207031 0.422363
vt 0.577148 0.615723
vt 0.596191 0.609375
vt 0.213379 0.441406
vt 0.368408 0.416992
vt 0.493164 0.500488
vt 0.506348 0.485352
vt 0.364502 0.436768
vt 0.499268 0.874512
vt 0.562500 0.754394
vt 0.390869 0.948731
vt 0.554199 0.623535
vt 0.476807 0.519043
vt 0.262207 0.946777
vt 0.359619 0.460938
vt 0.221191 0.464355
vt 0.144898 0.888672
vt 0.119385 0.540527
vt 0.070679 0.790039
vt 0.055817 0.655273
vn -0.5561 0.6977 -0.4516
vn -0.1866 0.8765 -0.4438
vn -0.1897 0.8758 -0.4438
vn -0.5537 0.6997 -0.4514
vn -0.8178 0.3063 -0.4873
vn -0.7754 0.4080 -0.4820
vn -0.7985 -0.1881 -0.5719
vn -0.8327 -0.0827 -0.5475
vn -0.6201 -0.5190 -0.5883
vn -0.7985 -0.1882 -0.5719
vn -0.6202 -0.5186 -0.5885
vn -0.3152 -0.8078 -0.4981
vn -0.3208 -0.8041 -0.5005
vn 0.1625 -0.9371 -0.3091
vn 0.1618 -0.9371 -0.3094
vn 0.6349 -0.7272 -0.2610
vn 0.1625 -0.9370 -0.3091
vn 0.1618 -0.9371 -0.3093
vn 0.5810 -0.7764 -0.2442
vn 0.8488 -0.2623 -0.4591
vn 0.8289 -0.3871 -0.4037
vn 0.8164 0.1499 -0.5576
vn 0.8161 0.1515 -0.5577
vn 0.6247 0.5278 -0.5755
vn 0.6240 0.5283 -0.5758
vn 0.2752 0.8130 -0.5132
vn 0.2727 0.8144 -0.5122
vn -0.1867 0.8764 -0.4438
vn -0.0000 -0.0000 1.0000
vn 0.0000 0.0000 -1.0000
vn 0.3679 -0.5243 0.7679
vn 0.1489 -0.6534 0.7422
vn 0.1426 -0.6548 0.7422
vn 0.4060 -0.4797 0.7778
vn -0.1947 -0.5249 0.8286
vn 0.4810 -0.2673 0.8350
vn -0.1332 -0.5797 0.8039
vn 0.4790 -0.1719 0.8608
vn -0.3877 -0.3282 0.8614
vn 0.4695 0.0839 0.8789
vn -0.3872 -0.3289 0.8613
vn 0.4694 0.0848 0.8789
vn -0.5601 -0.1152 0.8204
vn 0.4223 0.3586 0.8325
vn -0.5810 -0.0842 0.8095
vn 0.4252 0.3498 0.8348
vn -0.5366 0.2134 0.8164
vn 0.2111 0.4974 0.8415
vn -0.5493 0.1993 0.8115
vn 0.1782 0.4996 0.8477
vn -0.2998 0.3755 0.8770
vn -0.0931 0.4558 0.8852
vn -0.2945 0.3772 0.8781
vn -0.0893 0.4577 0.8846
vn -0.0185 0.0804 0.9966
vn -0.0647 0.3093 0.9488
vn -0.1967 0.2462 0.9491
vn -0.0513 0.0663 0.9965
vn -0.2893 0.1197 0.9497
vn 0.0273 0.0905 0.9955
vn 0.0973 0.2947 0.9506
vn -0.0812 0.0367 0.9960
vn -0.3040 -0.0547 0.9511
vn 0.0668 0.0568 0.9961
vn 0.2390 0.2021 0.9498
vn -0.0951 -0.0175 0.9953
vn -0.2424 -0.2045 0.9484
vn 0.0877 0.0160 0.9960
vn 0.3077 0.0553 0.9499
vn -0.0607 -0.0514 0.9968
vn -0.1088 -0.2903 0.9507
vn 0.0849 -0.0335 0.9958
vn 0.2915 -0.1104 0.9502
vn -0.0340 -0.0883 0.9955
vn 0.0581 -0.3086 0.9494
vn 0.0539 -0.0674 0.9963
vn 0.1988 -0.2433 0.9494
vn 0.0167 -0.0847 0.9963
vn -0.1747 -0.1481 0.9734
vn -0.2253 -0.0410 0.9734
vn -0.0671 -0.2167 0.9739
vn -0.2129 0.0824 0.9736
vn -0.1444 0.1791 0.9732
vn 0.0507 -0.2260 0.9728
vn -0.0438 0.2257 0.9732
vn 0.0808 0.2115 0.9740
vn 0.1421 -0.1820 0.9730
vn 0.1776 0.1502 0.9726
vn 0.2095 -0.0926 0.9734
vn 0.2220 0.0405 0.9742
g ForestBadge_ForestBadge_Default_OBJ.003
usemtl Default_OBJ.003
s 1
f 1/1/1 2/2/2 3/3/3
f 4/4/4 1/1/1 3/3/3
f 5/5/5 1/1/1 4/4/4
f 6/6/6 5/5/5 4/4/4
f 7/7/7 5/5/5 6/6/6
f 8/8/8 7/7/7 6/6/6
f 9/9/9 10/10/10 11/11/8
f 12/12/11 9/9/9 11/11/8
f 13/13/12 9/9/9 12/12/11
f 14/14/13 13/13/12 12/12/11
f 15/15/14 13/13/12 14/14/13
f 16/16/15 15/15/14 14/14/13
f 17/17/16 18/18/17 19/19/18
f 20/20/19 17/17/16 19/19/18
f 21/21/20 17/17/16 20/20/19
f 22/22/21 21/21/20 20/20/19
f 23/23/22 21/21/20 22/22/21
f 24/24/23 23/23/22 22/22/21
f 25/25/24 26/26/22 27/27/23
f 28/28/25 25/25/24 27/27/23
f 29/29/26 25/25/24 28/28/25
f 30/30/27 29/29/26 28/28/25
f 31/31/28 29/29/26 30/30/27
f 32/32/3 31/31/28 30/30/27
f 33/33/29 34/34/29 35/35/29
f 35/35/29 34/34/29 36/36/29
f 37/37/29 34/34/29 33/33/29
f 36/36/29 34/34/29 38/38/29
f 39/39/29 34/34/29 37/37/29
f 38/38/29 34/34/29 40/40/29
f 41/41/29 34/34/29 39/39/29
f 40/40/29 34/34/29 42/42/29
f 43/43/29 34/34/29 41/41/29
f 42/42/29 34/34/29 44/44/29
f 45/45/29 34/34/29 43/43/29
f 44/44/29 34/34/29 45/45/29
f 46/46/30 47/47/30 48/48/30
f 48/48/30 47/47/30 49/49/30
f 50/50/30 47/47/30 46/46/30
f 49/49/30 47/47/30 51/51/30
f 52/52/30 47/47/30 50/50/30
f 51/51/30 47/47/30 53/53/30
f 54/54/30 47/47/30 52/52/30
f 53/53/30 47/47/30 55/55/30
f 56/56/30 47/47/30 54/54/30
f 55/55/30 47/47/30 57/57/30
f 58/58/30 47/47/30 56/56/30
f 57/57/30 47/47/30 58/58/30
f 59/59/31 60/60/32 61/61/33
f 62/62/34 59/59/31 61/61/33
f 61/61/33 60/60/32 63/63/35
f 64/64/36 59/59/31 62/62/34
f 60/60/32 65/65/37 63/63/35
f 66/66/38 64/64/36 62/62/34
f 63/63/35 65/65/37 67/67/39
f 68/68/40 64/64/36 66/66/38
f 65/65/37 69/69/41 67/67/39
f 70/70/42 68/68/40 66/66/38
f 67/67/39 69/69/41 71/71/43
f 72/72/44 68/68/40 70/70/42
f 69/69/41 73/73/45 71/71/43
f 74/74/46 72/72/44 70/70/42
f 71/71/43 73/73/45 75/75/47
f 76/76/48 72/72/44 74/74/46
f 73/73/45 77/77/49 75/75/47
f 78/78/50 76/76/48 74/74/46
f 75/75/47 77/77/49 79/79/51
f 80/80/52 76/76/48 78/78/50
f 77/77/49 81/81/53 79/79/51
f 82/82/54 80/80/52 78/78/50
f 79/79/51 81/81/53 82/82/54
f 81/81/53 80/80/52 82/82/54
f 83/83/55 84/84/56 85/85/57
f 86/86/58 83/83/55 85/85/57
f 86/86/58 85/85/57 87/87/59
f 83/83/55 88/88/60 84/84/56
f 88/88/60 89/89/61 84/84/56
f 90/90/62 86/86/58 87/87/59
f 90/90/62 87/87/59 91/91/63
f 88/88/60 92/92/64 89/89/61
f 92/92/64 93/93/65 89/89/61
f 94/94/66 90/90/62 91/91/63
f 94/94/66 91/91/63 95/95/67
f 92/92/64 96/96/68 93/93/65
f 96/96/68 97/97/69 93/93/65
f 98/98/70 94/94/66 95/95/67
f 98/98/70 95/95/67 99/99/71
f 96/96/68 100/100/72 97/97/69
f 100/100/72 101/101/73 97/97/69
f 102/102/74 98/98/70 99/99/71
f 102/102/74 99/99/71 103/103/75
f 100/100/72 104/104/76 101/101/73
f 104/104/76 105/105/77 101/101/73
f 106/106/78 103/103/75 105/105/77
f 106/106/78 102/102/74 103/103/75
f 104/104/76 106/106/78 105/105/77
f 96/96/68 92/92/64 107/107/79
f 108/108/80 96/96/68 107/107/79
f 100/100/72 96/96/68 108/108/80
f 107/107/79 92/92/64 109/109/81
f 110/110/82 100/100/72 108/108/80
f 104/104/76 100/100/72 110/110/82
f 92/92/64 88/88/60 109/109/81
f 111/111/83 104/104/76 110/110/82
f 106/106/78 104/104/76 111/111/83
f 109/109/81 88/88/60 112/112/84
f 113/113/85 106/106/78 111/111/83
f 102/102/74 106/106/78 113/113/85
f 88/88/60 83/83/55 112/112/84
f 114/114/86 102/102/74 113/113/85
f 112/112/84 83/83/55 115/115/87
f 98/98/70 102/102/74 114/114/86
f 83/83/55 86/86/58 115/115/87
f 116/116/88 98/98/70 114/114/86
f 115/115/87 86/86/58 117/117/89
f 94/94/66 98/98/70 116/116/88
f 86/86/58 90/90/62 117/117/89
f 118/118/90 94/94/66 116/116/88
f 117/117/89 90/90/62 118/118/90
f 90/90/62 94/94/66 118/118/90
