# Blender v2.83.3 OBJ File: ''
# www.blender.org
mtllib PizzaMenu.mtl
o Quest_PizzaMenu
v 0.189187 0.178846 0.413011
v 0.286897 -0.107848 0.413011
v 0.286897 -0.107847 -0.413980
v 0.189187 0.178846 -0.413980
v 0.017766 -0.059592 0.413474
v 0.017766 -0.059592 -0.413518
v 0.286897 -0.107847 -0.413980
v 0.286897 -0.107848 0.413011
v -0.273228 -0.099359 0.413474
v -0.273228 -0.099359 -0.413518
v 0.017766 -0.059592 -0.413518
v 0.017766 -0.059592 0.413474
v 0.173427 0.194712 0.413496
v 0.173427 0.194712 -0.413496
v 0.271137 -0.091982 -0.413496
v 0.271137 -0.091982 0.413496
v 0.017057 -0.048766 0.413496
v 0.271137 -0.091982 0.413496
v 0.271137 -0.091982 -0.413496
v 0.017056 -0.048765 -0.413496
v -0.273938 -0.088533 0.413496
v 0.017057 -0.048766 0.413496
v 0.017056 -0.048765 -0.413496
v -0.273938 -0.088533 -0.413496
v 0.189187 0.178846 0.413011
v 0.173427 0.194712 0.413496
v 0.271137 -0.091982 0.413496
v 0.286897 -0.107848 0.413011
v 0.189187 0.178846 -0.413980
v 0.173427 0.194712 -0.413496
v 0.173427 0.194712 0.413496
v 0.189187 0.178846 0.413011
v 0.286897 -0.107847 -0.413980
v 0.271137 -0.091982 -0.413496
v 0.173427 0.194712 -0.413496
v 0.189187 0.178846 -0.413980
v 0.286897 -0.107847 -0.413980
v 0.017766 -0.059592 -0.413518
v 0.271137 -0.091982 -0.413496
v 0.017056 -0.048765 -0.413496
v -0.273228 -0.099359 -0.413518
v -0.273938 -0.088533 -0.413496
v 0.286897 -0.107848 0.413011
v 0.271137 -0.091982 0.413496
v 0.017057 -0.048766 0.413496
v 0.017766 -0.059592 0.413474
v -0.273938 -0.088533 0.413496
v -0.273228 -0.099359 0.413474
v -0.273228 -0.099359 0.413474
v -0.273938 -0.088533 0.413496
v -0.273938 -0.088533 -0.413496
v -0.273228 -0.099359 -0.413518
vt 0.220215 0.293457
vt 0.221191 0.002663
vt 0.824707 0.004772
vt 0.824219 0.295410
vt 0.371582 0.310791
vt 0.376221 0.996582
vt 0.612793 0.995606
vt 0.608398 0.309326
vt 0.110413 0.312256
vt 0.114929 0.998047
vt 0.376221 0.996582
vt 0.371582 0.310791
vt 0.872559 0.307861
vt 0.876953 0.993652
vt 0.612793 0.995606
vt 0.608398 0.309326
vt 0.371582 0.310791
vt 0.608398 0.309326
vt 0.612793 0.995606
vt 0.376221 0.996582
vt 0.110413 0.312256
vt 0.371582 0.310791
vt 0.376221 0.996582
vt 0.114929 0.998047
vt 0.872559 0.307861
vt 0.872559 0.307861
vt 0.608398 0.309326
vt 0.608398 0.309326
vt 0.876953 0.993652
vt 0.876953 0.993652
vt 0.872559 0.307861
vt 0.872559 0.307861
vt 0.612793 0.995606
vt 0.612793 0.995606
vt 0.876953 0.993652
vt 0.876953 0.993652
vt 0.612793 0.995606
vt 0.376221 0.996582
vt 0.612793 0.995606
vt 0.376221 0.996582
vt 0.114929 0.998047
vt 0.114929 0.998047
vt 0.608398 0.309326
vt 0.608398 0.309326
vt 0.371582 0.310791
vt 0.371582 0.310791
vt 0.110413 0.312256
vt 0.110413 0.312256
vt 0.110413 0.312256
vt 0.110413 0.312256
vt 0.114929 0.998047
vt 0.114929 0.998047
vn 0.9467 0.3221 0.0000
vn 0.9465 0.3226 0.0000
vn -0.1765 -0.9843 -0.0000
vn 0.1354 -0.9908 -0.0000
vn -0.9466 -0.3223 -0.0000
vn -0.9465 -0.3226 -0.0000
vn 0.1677 0.9858 0.0000
vn -0.1354 0.9908 0.0000
vn 0.0468 0.0159 0.9988
vn 0.7095 0.7047 0.0000
vn -0.0467 -0.0159 -0.9988
vn 0.0027 0.0206 -0.9998
vn -0.0003 0.0020 -1.0000
vn -0.0027 -0.0207 0.9998
vn -0.0027 -0.0206 0.9998
vn 0.0003 -0.0020 1.0000
vn -0.9979 -0.0654 -0.0000
g Quest_PizzaMenu_Quest_PizzaMenu_Default_OBJ
usemtl Default_OBJ
s 1
f 1/1/1 2/2/2 3/3/1
f 4/4/2 1/1/1 3/3/1
f 5/5/3 6/6/3 7/7/3
f 8/8/3 5/5/3 7/7/3
f 9/9/4 10/10/4 11/11/4
f 12/12/4 9/9/4 11/11/4
f 13/13/5 14/14/6 15/15/5
f 16/16/6 13/13/5 15/15/5
f 17/17/7 18/18/7 19/19/7
f 20/20/7 17/17/7 19/19/7
f 21/21/8 22/22/8 23/23/8
f 24/24/8 21/21/8 23/23/8
f 25/25/9 26/26/9 27/27/9
f 28/28/9 25/25/9 27/27/9
f 29/29/10 30/30/10 31/31/10
f 32/32/10 29/29/10 31/31/10
f 33/33/11 34/34/11 35/35/11
f 36/36/11 33/33/11 35/35/11
f 37/37/12 38/38/12 39/39/12
f 38/38/12 40/40/12 39/39/12
f 38/38/12 41/41/13 40/40/12
f 41/41/13 42/42/13 40/40/12
f 43/43/14 44/44/15 45/45/15
f 46/46/14 43/43/14 45/45/15
f 46/46/14 45/45/15 47/47/16
f 48/48/16 46/46/14 47/47/16
f 49/49/17 50/50/17 51/51/17
f 52/52/17 49/49/17 51/51/17
